<svg xmlns="http://www.w3.org/2000/svg" width="64.014" height="63.696" viewBox="0 0 64.014 63.696">
  <g id="Group_1" data-name="Group 1" transform="translate(-950 -528)">
    <path id="python" d="M37.919.478l2.389.531,1.937.69,1.566.8L45,3.344l.9.9.663.9L47,6.025l.265.8.106.69.053.531-.027.345V22.559l-.133,1.672-.345,1.46-.557,1.221-.69,1.009-.8.823L44,29.406l-.929.5-.929.372-.876.265-.8.186-.69.106-.557.053H23.375l-1.831.133-1.566.372-1.327.584-1.088.717-.876.849-.717.929-.531.955-.4.982-.265.929-.186.849-.106.717-.053.557v8.121H8.512l-.557-.08-.743-.186L6.363,47l-.929-.478-.955-.69-.955-.955-.929-1.221-.849-1.566L1,40.155.444,37.819.073,35.033-.06,31.768.1,28.53l.425-2.76.637-2.309.849-1.884.955-1.513L4.027,18.9l1.115-.876,1.115-.637,1.062-.425.955-.265.849-.133.637-.027h.425l.159.027H32v-2.2H16.5l-.027-7.3-.053-.982.133-.9.292-.823.451-.743.663-.69.823-.61,1.009-.531L20.96,1.3,22.313.9,23.853.584l1.7-.265L27.435.159,29.479.053,31.708,0l3.371.133ZM21.2,5.733l-.61.876L20.376,7.7l.212,1.088.61.9.876.584,1.088.239,1.088-.239.876-.584.61-.9L25.949,7.7l-.212-1.088-.61-.876-.876-.584L23.162,4.91l-1.088.239ZM55.939,16.216l.743.159.849.318.929.478.955.717.955.929.929,1.247.849,1.566.743,1.937L63.45,25.9l.372,2.76.133,3.264L63.8,35.192l-.425,2.76-.637,2.282-.849,1.884-.955,1.513-1.062,1.194-1.115.876-1.115.637-1.062.425L55.621,47l-.849.133-.637.053-.425-.027H31.894v2.176h15.5l.027,7.325.053.955-.133.9-.292.823-.451.77-.663.663-.823.637-1.009.531-1.168.451-1.354.4-1.539.345-1.7.239-1.884.186-2.044.106-2.229.027-3.371-.106-2.84-.372-2.389-.531-1.937-.663-1.566-.8-1.194-.876-.9-.9-.663-.9-.425-.876-.265-.8-.106-.663-.053-.531.027-.345V41.164l.133-1.7.345-1.433.557-1.221.69-1.009.8-.849.876-.637.929-.531.929-.372.876-.265.8-.159.69-.106.557-.053.345-.027h15.5l1.831-.133,1.566-.372,1.327-.557L46.332,31l.876-.849.717-.929.531-.955.4-.955.265-.929.186-.849.106-.743.053-.557V16.11H55.01l.372.027ZM38.768,54.035l-.61.876L37.945,56l.212,1.088.61.876.876.61,1.088.212,1.088-.212.876-.61.61-.876L43.519,56l-.212-1.088-.61-.876-.876-.61-1.088-.212-1.088.212Z" transform="translate(950.06 528)" fill="#e1e364"/>
    <path id="python-2" data-name="python" d="M37.919.478l2.389.531,1.937.69,1.566.8L45,3.344l.9.9.663.9L47,6.025l.265.8.106.69.053.531-.027.345V22.559l-.133,1.672-.345,1.46-.557,1.221-.69,1.009-.8.823L44,29.406l-.929.5-.929.372-.876.265-.8.186-.69.106-.557.053H23.375l-1.831.133-1.566.372-1.327.584-1.088.717-.876.849-.717.929-.531.955-.4.982-.265.929-.186.849-.106.717-.053.557v8.121H8.512l-.557-.08-.743-.186L6.363,47l-.929-.478-.955-.69-.955-.955-.929-1.221-.849-1.566L1,40.155.444,37.819.073,35.033-.06,31.768.1,28.53l.425-2.76.637-2.309.849-1.884.955-1.513L4.027,18.9l1.115-.876,1.115-.637,1.062-.425.955-.265.849-.133.637-.027h.425l.159.027H32v-2.2H16.5l-.027-7.3-.053-.982.133-.9.292-.823.451-.743.663-.69.823-.61,1.009-.531L20.96,1.3,22.313.9,23.853.584l1.7-.265L27.435.159,29.479.053,31.708,0l3.371.133ZM21.2,5.733l-.61.876L20.376,7.7l.212,1.088.61.9.876.584,1.088.239,1.088-.239.876-.584.61-.9L25.949,7.7l-.212-1.088-.61-.876-.876-.584L23.162,4.91l-1.088.239Z" transform="translate(950.06 528)" fill="#3e7bac"/>
  </g>
</svg>
